<svg width="30" height="30" viewBox="0 0 24 25" fill="none" xmlns="http://www.w3.org/2000/svg">
<path d="M17 10.5L15 4.5M7 10.5L9 4.5M10 14.5C10 15.0304 10.2107 15.5391 10.5858 15.9142C10.9609 16.2893 11.4696 16.5 12 16.5C12.5304 16.5 13.0391 16.2893 13.4142 15.9142C13.7893 15.5391 14 15.0304 14 14.5C14 13.9696 13.7893 13.4609 13.4142 13.0858C13.0391 12.7107 12.5304 12.5 12 12.5C11.4696 12.5 10.9609 12.7107 10.5858 13.0858C10.2107 13.4609 10 13.9696 10 14.5ZM5.00024 8.5H18.9992C19.2876 8.49997 19.5726 8.56229 19.8346 8.6827C20.0966 8.80311 20.3295 8.97876 20.5173 9.1976C20.7051 9.41645 20.8433 9.67331 20.9225 9.95059C21.0017 10.2279 21.0201 10.519 20.9762 10.804L19.7212 17.956C19.6123 18.6644 19.2533 19.3105 18.7092 19.7771C18.1652 20.2438 17.472 20.5002 16.7552 20.5H7.24324C6.52664 20.5 5.83372 20.2434 5.28987 19.7768C4.74602 19.3102 4.38716 18.6643 4.27824 17.956L3.02324 10.804C2.97941 10.519 2.99773 10.2279 3.07694 9.95059C3.15616 9.67331 3.2944 9.41645 3.48218 9.1976C3.66997 8.97876 3.90286 8.80311 4.16488 8.6827C4.42691 8.56229 4.71187 8.49997 5.00024 8.5Z" stroke="#fff" stroke-width="1" stroke-linecap="round" stroke-linejoin="round"/>
</svg>
